<svg width="100" height="100" viewBox="0 0 100 100" fill="none" xmlns="http://www.w3.org/2000/svg">
<circle cx="50" cy="50" r="49.5" fill="#71B071" stroke="black"/>
<path d="M50 26C50 26 50.6897 38.8103 55.9397 44.0603C61.1897 49.3103 74 50 74 50C74 50 61.1897 50.6897 55.9397 55.9397C50.6897 61.1897 50 74 50 74C50 74 49.3103 61.1897 44.0603 55.9397C38.8103 50.6897 26 50 26 50C26 50 38.8103 49.3103 44.0603 44.0603C49.3103 38.8103 50 26 50 26Z" fill="#FFD700"/>
<path d="M18 69C18 69 25.4727 69.4023 28.5352 72.4648C31.5977 75.5273 32 83 32 83C32 83 32.4023 75.5273 35.4648 72.4648C38.5273 69.4023 46 69 46 69C46 69 38.5273 68.5977 35.4648 65.5352C32.4023 62.4727 32 55 32 55C32 55 31.5977 62.4727 28.5352 65.5352C25.4727 68.5977 18 69 18 69Z" fill="white"/>
<path d="M70 16C70 16 70.4023 23.4727 73.4648 26.5352C76.5273 29.5977 84 30 84 30C84 30 76.5273 30.4023 73.4648 33.4648C70.4023 36.5273 70 44 70 44C70 44 69.5977 36.5273 66.5352 33.4648C63.4727 30.4023 56 30 56 30C56 30 63.4727 29.5977 66.5352 26.5352C69.5977 23.4727 70 16 70 16Z" fill="white"/>
</svg>
