<svg width="128" height="128" viewBox="0 0 128 128" fill="none" xmlns="http://www.w3.org/2000/svg">
<circle cx="64" cy="64" r="63.5" fill="#71B071" stroke="black"/>
<path d="M64 28C64 28 65.0345 47.2154 72.9095 55.0905C80.7846 62.9655 100 64 100 64C100 64 80.7846 65.0345 72.9095 72.9095C65.0345 80.7846 64 100 64 100C64 100 62.9655 80.7846 55.0905 72.9095C47.2154 65.0345 28 64 28 64C28 64 47.2154 62.9655 55.0905 55.0905C62.9655 47.2154 64 28 64 28Z" fill="#395031"/>
<path d="M90 24C90 24 90.4598 32.5402 93.9598 36.0402C97.4598 39.5402 106 40 106 40C106 40 97.4598 40.4598 93.9598 43.9598C90.4598 47.4598 90 56 90 56C90 56 89.5402 47.4598 86.0402 43.9598C82.5402 40.4598 74 40 74 40C74 40 82.5402 39.5402 86.0402 36.0402C89.5402 32.5402 90 24 90 24Z" fill="#456B3F"/>
<path d="M38 72C38 72 38.4598 80.5402 41.9598 84.0402C45.4598 87.5402 54 88 54 88C54 88 45.4598 88.4598 41.9598 91.9598C38.4598 95.4598 38 104 38 104C38 104 37.5402 95.4598 34.0402 91.9598C30.5402 88.4598 22 88 22 88C22 88 30.5402 87.5402 34.0402 84.0402C37.5402 80.5402 38 72 38 72Z" fill="#456B3F"/>
</svg>
